<svg width="800" height="706" viewBox="0 0 800 706" fill="none" xmlns="http://www.w3.org/2000/svg">
<path d="M309.502 561.086H126.697C116.7 561.086 108.597 569.189 108.597 579.185C108.597 589.182 116.7 597.285 126.697 597.285H309.502C319.499 597.285 327.602 589.182 327.602 579.185C327.602 569.189 319.499 561.086 309.502 561.086Z" fill="#919191"/>
<path d="M582.805 561.086H400C390.004 561.086 381.9 569.189 381.9 579.185C381.9 589.182 390.004 597.285 400 597.285H582.805C592.8 597.285 600.905 589.182 600.905 579.185C600.905 569.189 592.8 561.086 582.805 561.086Z" fill="#919191"/>
<path d="M582.805 108.597H126.697C116.7 108.597 108.597 116.7 108.597 126.697C108.597 136.693 116.7 144.796 126.697 144.796H582.805C592.8 144.796 600.905 136.693 600.905 126.697C600.905 116.7 592.8 108.597 582.805 108.597Z" fill="#919191"/>
<path d="M582.805 199.095H400C390.004 199.095 381.9 207.198 381.9 217.195C381.9 227.191 390.004 235.294 400 235.294H582.805C592.8 235.294 600.905 227.191 600.905 217.195C600.905 207.198 592.8 199.095 582.805 199.095Z" fill="#919191"/>
<path d="M582.805 289.593H400C390.004 289.593 381.9 297.696 381.9 307.692C381.9 317.689 390.004 325.792 400 325.792H582.805C592.8 325.792 600.905 317.689 600.905 307.692C600.905 297.696 592.8 289.593 582.805 289.593Z" fill="#919191"/>
<path d="M582.805 380.091H400C390.004 380.091 381.9 388.194 381.9 398.19C381.9 408.186 390.004 416.29 400 416.29H582.805C592.8 416.29 600.905 408.186 600.905 398.19C600.905 388.194 592.8 380.091 582.805 380.091Z" fill="#919191"/>
<path d="M582.805 470.588H400C390.004 470.588 381.9 478.691 381.9 488.688C381.9 498.684 390.004 506.787 400 506.787H582.805C592.8 506.787 600.905 498.684 600.905 488.688C600.905 478.691 592.8 470.588 582.805 470.588Z" fill="#919191"/>
<path d="M309.502 470.588H126.697C116.7 470.588 108.597 478.691 108.597 488.688C108.597 498.684 116.7 506.787 126.697 506.787H309.502C319.499 506.787 327.602 498.684 327.602 488.688C327.602 478.691 319.499 470.588 309.502 470.588Z" fill="#919191"/>
<path d="M309.502 199.095H126.697C116.7 199.095 108.597 207.198 108.597 217.195V400C108.597 409.996 116.7 418.1 126.697 418.1H309.502C319.499 418.1 327.602 409.996 327.602 400V217.195C327.602 207.198 319.499 199.095 309.502 199.095ZM291.403 381.9H144.796V235.294H291.403V381.9Z" fill="#919191"/>
<path d="M763.801 90.4977H709.502V36.1991C709.502 16.2389 693.263 0 673.303 0H36.1991C16.2389 0 0 16.2389 0 36.1991V615.385C0 665.285 40.5973 705.882 90.4977 705.882H709.502C759.403 705.882 800 665.285 800 615.385V126.697C800 106.737 783.761 90.4977 763.801 90.4977ZM763.801 615.385C763.801 645.325 739.443 669.683 709.502 669.683H90.4977C60.5575 669.683 36.1991 645.325 36.1991 615.385V36.1991H673.303V588.235C673.303 613.186 693.602 633.484 718.552 633.484C728.547 633.484 736.652 625.381 736.652 615.385C736.652 605.388 728.547 597.285 718.552 597.285C713.562 597.285 709.502 593.225 709.502 588.235V126.697H763.801V615.385Z" fill="#919191"/>
</svg>
