<svg width="60" height="60" viewBox="0 0 60 60" fill="none" xmlns="http://www.w3.org/2000/svg">
<path fill-rule="evenodd" clip-rule="evenodd" d="M30 0C45.6334 0 58.4874 11.84 60 27H41.6797C40.341 21.8243 35.6193 17.9999 30.0001 17.9999C24.3808 17.9999 19.6591 21.8243 18.3204 27H0C1.51264 11.84 14.3668 0 30 0ZM18.3204 33H0C1.51264 48.1599 14.3668 60 30 60C45.6331 60 58.4874 48.1599 60 33H41.6797C40.3409 38.1757 35.6193 41.9999 30.0001 41.9999C24.3808 41.9999 19.6592 38.1757 18.3204 33Z" fill="#919191"/>
<circle cx="30" cy="30" r="8" fill="#919191"/>
</svg>
